<?xml version="1.0" encoding="utf-8"?>
<!-- Generator: Adobe Illustrator 24.1.2, SVG Export Plug-In . SVG Version: 6.00 Build 0)  -->
<svg version="1.1" id="Layer_1" xmlns="http://www.w3.org/2000/svg" xmlns:xlink="http://www.w3.org/1999/xlink" x="0px" y="0px"
	 viewBox="0 0 841.9 595.3" style="enable-background:new 0 0 841.9 595.3;" xml:space="preserve">
<style type="text/css">
	.st0{fill:url(#SVGID_1_);}
	.st1{fill:#0370FF;}
	.st2{fill:#1573FF;}
</style>
<linearGradient id="SVGID_1_" gradientUnits="userSpaceOnUse" x1="99.56" y1="259.1578" x2="99.56" y2="395.1198" gradientTransform="matrix(1 0 0 -1 0 595.2756)">
	<stop  offset="2.237672e-07" style="stop-color:#1C94D2"/>
	<stop  offset="0.4475" style="stop-color:#4FB3C1"/>
	<stop  offset="1" style="stop-color:#75C269"/>
</linearGradient>
<path class="st0" d="M162.1,264.4h-27.3l-37.2-78.8l-37.2,78.8H37c-3,0-5.4,2.4-5.4,5.4v2.3c0,3,2.4,5.4,5.4,5.4h19.3
	c0,0-0.8,63.8,62.5,95.9c0,0-6.8-27.7,8.6-52.8c4.1-6.6,7.4-13.7,9.8-21.1c2.2-7.1,3.9-15.2,2.8-22h22.2c3,0,5.4-2.4,5.4-5.4v-2.3
	C167.5,266.9,165.1,264.4,162.1,264.4z M90.8,259.9c0,0,6.5,7.6,5.3,11c0,0-13.3-3.2-13.1-11C83.2,252,90.8,259.9,90.8,259.9z
	 M120.9,302.7c-2.9,15.1-15.9,15.1-23.9,15.1c-5.8,0-13.3-0.3-18-4.9c-0.8-0.8-2.2-2.3-2.7-3.3l-0.8-1.4c-2.1-3.1-2.6-6.7-3-11.6
	c-0.2-3.3,0.7-8,1.2-9.7c1.5-4.2,2.2-6.4,5-9.3c7.6-7.8,18.5-1.8,18.5-1.8c12.9-7.2,18.3,1.4,18.3,1.4
	C118.7,279.8,123.4,289.2,120.9,302.7z"/>
<g>
	<path class="st1" d="M509.3,313.8l13.1-37.3h4.2l13.2,37.3l14-37.8h4.8L542,319.9h-4.4l-13.2-36.5l-13.1,36.5h-4.5L490.3,276h5
		L509.3,313.8z"/>
	<path class="st1" d="M571,258.4c2.1,0,3.8,1.7,3.8,3.8c0,2-1.7,3.7-3.8,3.7s-3.9-1.7-3.9-3.7C567.2,260.1,568.9,258.4,571,258.4z
		 M573.3,319.9h-4.6V276h4.6V319.9z"/>
	<path class="st1" d="M585.6,280.1V276h39v4l-33.9,35.8h34.6v4.1h-40.5v-4l33.9-35.8H585.6z"/>
	<path class="st1" d="M677.4,276v43.9h-4.6v-9.1c-3.1,6.7-9.8,10.3-17.8,10.3c-12.6,0-21.8-10.1-21.8-23.1s9.1-23.2,21.8-23.2
		c8,0,14.7,3.6,17.8,10.3v-9.1L677.4,276L677.4,276z M655.5,278.9c-10.7,0-17.8,8.5-17.8,19c0,10.5,7.1,19,17.8,19
		c9.7,0,17.4-6.9,17.4-19C672.9,285.7,665.2,278.9,655.5,278.9z"/>
	<path class="st1" d="M717.2,279.8c-1.1-0.3-2.6-0.4-4.4-0.4c-9,0-15.2,8.2-15.2,17.1v23.4H693V276h4.6v9.8
		c2.4-6.4,8-10.7,15.5-10.7c1.8,0,3.2,0.2,4.2,0.6V279.8z"/>
	<path class="st1" d="M768.3,257.5v62.4h-4.6v-9.1c-3.1,6.7-9.8,10.3-17.8,10.3c-12.6,0-21.8-10.1-21.8-23.1s9.1-23.2,21.8-23.2
		c8,0,14.7,3.6,17.8,10.3v-27.6H768.3z M746.3,278.9c-10.7,0-17.8,8.5-17.8,19c0,10.5,7.1,19,17.8,19c9.7,0,17.4-6.9,17.4-19
		C763.8,285.7,756.1,278.9,746.3,278.9z"/>
</g>
<g>
	<path class="st2" d="M212.4,321.3c-6,0-11.2-2.5-14.2-7.3v24h-12.9v-63.7h12.9v6.1c3.1-4.7,8.2-7.3,14.2-7.3
		c12.8,0,22.3,10.6,22.3,24C234.7,310.8,225.2,321.3,212.4,321.3z M219,288c-2.2-2.5-5.1-3.7-8.7-3.7c-7.1,0-12,5.3-12,12.9
		c0,7.7,4.9,13,12,13c7.2,0,12.1-5.5,12.1-13C222.4,293.5,221.3,290.5,219,288z"/>
	<path class="st2" d="M290.8,274.3v45.8h-12.9V314c-3,4.7-8.1,7.3-14.2,7.3c-12.9,0-22.3-10.5-22.3-24.1c0-13.5,9.3-24,22.3-24
		c6.1,0,11.2,2.5,14.2,7.3v-6.1L290.8,274.3L290.8,274.3z M274.4,288c-2.3-2.5-5.2-3.6-8.6-3.6c-3.6,0-6.5,1.3-8.8,3.7
		c-2.2,2.5-3.3,5.5-3.3,9.1c0,7.5,4.9,13,12.1,13c3.5,0,6.4-1.2,8.6-3.6s3.4-5.5,3.4-9.3C277.8,293.4,276.7,290.3,274.4,288z"/>
	<path class="st2" d="M347.1,320.1h-12.9v-25c0-7.1-3.3-10.8-9.3-10.8c-6.1,0-10.7,4.6-10.7,12.1v23.7h-12.9v-45.8h12.9v6.1
		c2.6-4.5,7.7-7.3,13.8-7.3c11.9,0,19,7.8,19,21L347.1,320.1L347.1,320.1z"/>
	<path class="st2" d="M392.1,318.5c-2.6,1.7-7,2.8-11.4,2.8c-11.4,0-17.7-6.5-17.7-19v-16.7h-9.4v-11.3h9.4v-12h12.9v12h14.5v11.3
		h-14.5v16.6c0,5.2,2.3,7.7,6.9,7.7c2.6,0,4.8-0.5,6.7-1.5L392.1,318.5z"/>
	<path class="st2" d="M430,286.1c-1.4-0.4-3.2-0.7-5.6-0.7c-7.2,0-12.1,4.7-12.1,11.9v22.8h-12.9v-45.8h12.9v7.2
		c2.1-4.8,6.9-8,12.4-8c2.2,0,4,0.3,5.3,0.9V286.1z"/>
	<path class="st2" d="M484.8,274.3l-19.5,46.5c-5.8,13.6-12.4,18.5-21,18.5c-3.7,0-8-1-10.8-2.5l2.7-10.3c2.2,0.9,4.6,1.4,7,1.4
		c4.6,0,7.5-2,9.6-7.1l0.3-0.7L433,274.3h13.8l12.6,30.1l12-30.1L484.8,274.3L484.8,274.3z"/>
</g>
</svg>
